<svg id="Layer_1" data-name="Layer 1" xmlns="http://www.w3.org/2000/svg" viewBox="0 0 512 512"><title>tulip-pot</title><g id="tulip-plant"><g id="fill"><path d="M346.4,267.13h0A37.38,37.38,0,0,1,309,229.74c0-55.66,102.81-65.4,102.81-65.4S411.83,267.13,346.4,267.13Z" fill="#a5bf8f"/><path d="M165.6,267.13h0A37.37,37.37,0,0,0,203,229.79c0-55.7-102.81-65.43-102.81-65.43S100.17,267.13,165.6,267.13Z" fill="#a5bf8f"/><g id="plant"><path d="M301.91,71.65c0,32.61-45.91,59.07-45.91,59.07s-53.38-26.45-53.38-59.07,31-59,53.38-59S301.91,39,301.91,71.65Z" fill="#ffcecf"/><path d="M166.37,40.14s21.79,22.26,23.79,93.2a65.5,65.5,0,0,0,7.59,28.91c8.59,16.24,25.68,37.36,56.32,37.36V127.88S217.86,41.48,166.37,40.14Z" fill="#ffcecf"/><path d="M344.92,40.14s-21.79,22.26-23.78,93.2a65.73,65.73,0,0,1-7.59,28.91c-8.62,16.24-25.67,37.36-56.35,37.36V127.88S293.43,41.48,344.92,40.14Z" fill="#ffcecf"/></g><polygon points="335.12 503.73 176.86 503.73 147.19 365.27 364.83 365.27 335.12 503.73" fill="#ffcecf" fill-rule="evenodd"/><rect x="127.42" y="325.7" width="257.16" height="39.57" fill="#fdfdf6"/></g><g id="line"><path d="M254.08,207.88c-26.78,0-49.38-14.84-63.63-41.76a74.14,74.14,0,0,1-8.55-32.56c-1.86-65.78-21.32-87.5-21.51-87.71a8.34,8.34,0,0,1-1.51-9.07,8.13,8.13,0,0,1,7.71-4.9c56.19,1.45,93.55,89.07,95.12,92.8a8.32,8.32,0,0,1,.64,3.19v71.73A8.27,8.27,0,0,1,254.08,207.88ZM183.22,52.51c6.66,15,14.08,40.48,15.21,80.6a57.5,57.5,0,0,0,6.64,25.28c7.08,13.37,19.69,29,40.75,32.33v-61.1C241.57,120.13,216.85,67.69,183.22,52.51Z" fill="#4d5152"/><path d="M257.2,207.88a8.27,8.27,0,0,1-8.27-8.27V127.88a8.29,8.29,0,0,1,.64-3.19c1.57-3.73,38.94-91.35,95.13-92.8a8.49,8.49,0,0,1,7.79,5,8.28,8.28,0,0,1-1.6,9c-.48.53-19.66,22.43-21.49,87.72a74.29,74.29,0,0,1-8.55,32.54C306.56,193.05,284,207.88,257.2,207.88Zm8.27-78.27v61.1c21-3.31,33.69-19,40.78-32.34a57.72,57.72,0,0,0,6.63-25.27c1.12-40.1,8.54-65.58,15.19-80.6C294.44,67.69,269.71,120.13,265.46,129.61Z" fill="#4d5152"/><path d="M206.24,64.37a8.28,8.28,0,0,1-7.37-12C201.59,47,226.22,0,254.08,0a8.27,8.27,0,0,1,0,16.54c-14,0-33.3,29.17-40.46,43.3A8.27,8.27,0,0,1,206.24,64.37Z" fill="#4d5152"/><path d="M301.94,64.37a8.28,8.28,0,0,1-7.38-4.53c-9.14-18-27.74-43.3-40.47-43.3a8.27,8.27,0,0,1,0-16.54C282,0,306.58,47,309.3,52.36a8.27,8.27,0,0,1-7.36,12Z" fill="#4d5152"/><path d="M255.65,331.83a8.27,8.27,0,0,1-8.27-8.27V172.06a8.27,8.27,0,1,1,16.53,0V323.56A8.27,8.27,0,0,1,255.65,331.83Z" fill="#4d5152"/><polygon points="335.12 503.73 176.86 503.73 147.19 365.27 364.83 365.27 335.12 503.73" fill="#ffd58e"/><path d="M335.12,512H176.86a8.27,8.27,0,0,1-8.08-6.54L139.11,367a8.28,8.28,0,0,1,8.08-10H364.83a8.27,8.27,0,0,1,8.08,10l-29.7,138.46A8.27,8.27,0,0,1,335.12,512ZM183.54,495.46h144.9L354.6,373.54H157.42Z" fill="#4d5152"/><path d="M384.58,373.54H127.42a8.27,8.27,0,0,1-8.27-8.27V325.7a8.27,8.27,0,0,1,8.27-8.27H384.58a8.27,8.27,0,0,1,8.27,8.27v39.57A8.27,8.27,0,0,1,384.58,373.54ZM135.69,357H376.31V334H135.69Z" fill="#4d5152"/><rect x="160.46" y="407.58" width="111.95" height="16.54" fill="#4d5152"/><rect x="169.79" y="444.92" width="65.32" height="16.54" fill="#4d5152"/><path d="M346.4,275.4a45.71,45.71,0,0,1-45.65-45.66c0-62.46,105.79-73.2,110.3-73.63a8.26,8.26,0,0,1,9,8.23C420.1,168.88,419.26,275.4,346.4,275.4Zm56.68-101.53c-24.15,3.87-85.8,17.49-85.8,55.87a29.15,29.15,0,0,0,29.12,29.12C391.91,258.86,401.2,197.88,403.09,173.87Z" fill="#4d5152"/><path d="M320,264.46a8.27,8.27,0,0,1-5.71-14.24l37.26-35.62a8.27,8.27,0,0,1,11.43,11.95l-37.26,35.62A8.24,8.24,0,0,1,320,264.46Z" fill="#4d5152"/><path d="M261,325a8.27,8.27,0,0,1-5.92-14l57.36-59a8.27,8.27,0,1,1,11.85,11.54l-57.36,59A8.26,8.26,0,0,1,261,325Z" fill="#4d5152"/><path d="M165.6,275.4c-72.85,0-73.69-106.51-73.69-111a8.27,8.27,0,0,1,2.7-6.12,8.48,8.48,0,0,1,6.34-2.12c4.5.43,110.3,11.16,110.3,73.66A45.68,45.68,0,0,1,165.6,275.4ZM108.91,173.88c1.89,24,11.17,85,56.68,85a29.13,29.13,0,0,0,29.12-29.07C194.72,191.37,133.07,177.74,108.91,173.88Z" fill="#4d5152"/><path d="M192,264.47a8.24,8.24,0,0,1-5.71-2.3l-37.23-35.63A8.27,8.27,0,0,1,160.5,214.6l37.23,35.63A8.27,8.27,0,0,1,192,264.47Z" fill="#4d5152"/><path d="M251,325a8.26,8.26,0,0,1-5.92-2.5l-57.33-59A8.27,8.27,0,1,1,199.57,252l57.33,59A8.27,8.27,0,0,1,251,325Z" fill="#4d5152"/></g></g></svg>