<svg id="Layer_1" data-name="Layer 1" xmlns="http://www.w3.org/2000/svg" viewBox="0 0 512 512"><title>yellow-flower-leaves</title><g id="flower-heart"><path d="M289.74,431.31C266.21,456.82,256,503.73,256,503.73s45.95-13.91,69.5-39.43,25.65-43.82,15.77-53S313.3,405.8,289.74,431.31Z" fill="#a5bf8f"/><path d="M222.26,431.31C245.8,456.82,256,503.73,256,503.73s-45.93-13.91-69.48-39.43-25.65-43.82-15.78-53S198.71,405.8,222.26,431.31Z" fill="#a5bf8f"/><path d="M289.74,340.49C266.21,366,256,412.89,256,412.89s45.95-13.9,69.5-39.4,25.65-43.85,15.77-53S313.3,315,289.74,340.49Z" fill="#a5bf8f"/><path d="M222.26,340.49C245.8,366,256,412.89,256,412.89s-45.93-13.9-69.48-39.4-25.65-43.85-15.78-53S198.71,315,222.26,340.49Z" fill="#a5bf8f"/><path d="M370,114.23a48,48,0,0,0-67.23-66.43,48,48,0,0,0-94.63.41,47.92,47.92,0,0,0-66.16,67.46,47.9,47.9,0,0,0,.09,94.45,48,48,0,0,0,67.28,66.5,48.07,48.07,0,0,0,94.66-.51,48.05,48.05,0,0,0,66.55-67.29,48,48,0,0,0-.55-94.6Z" fill="#ffd58e"/><path d="M256,239.53a77.37,77.37,0,1,1,77.38-77.36A77.37,77.37,0,0,1,256,239.53Z" fill="#fefefb"/><path d="M256.25,145.83a20.68,20.68,0,0,0-18.9-12.37c-11.36,0-19.53,9.42-20.59,20.62,0,0-.57,2.78.65,7.79a35,35,0,0,0,10.85,17.49l28,24.06,27.46-24.06a34.8,34.8,0,0,0,10.88-17.49,20.68,20.68,0,0,0,.65-7.79c-1-11.2-9.21-20.62-20.6-20.62A19.93,19.93,0,0,0,256.25,145.83Z" fill="#ffadaf"/><path d="M256,512a8.28,8.28,0,0,1-8.08-10c.44-2,11-49.41,35.75-76.27h0c12.11-13.1,23.66-21.57,34.34-25.18,11.22-3.79,21.47-2.09,28.87,4.76,5.62,5.19,21.11,25.19-15.31,64.63-24.79,26.86-71.22,41.14-73.18,41.73A8.12,8.12,0,0,1,256,512Zm39.82-75.09c-13.76,14.93-22.8,38.34-27.6,53.58,14.81-6,37.42-16.87,51.21-31.79,17-18.45,23.4-34.65,16.23-41.28-1.06-1-4.27-4-12.36-1.23-5.52,1.86-14.77,7-27.48,20.73Z" fill="#4d5152"/><path d="M256,512a8.12,8.12,0,0,1-2.39-.36c-2-.59-48.37-14.87-73.16-41.73-36.4-39.43-20.94-59.44-15.33-64.63s26.78-19,63.23,20.42h0C253.11,452.56,263.63,500,264.07,502A8.28,8.28,0,0,1,256,512Zm-73.17-96.93a9.23,9.23,0,0,0-6.49,2.34c-7.15,6.63-.78,22.83,16.25,41.28,13.78,14.93,36.39,25.8,51.19,31.79C239,475.25,230,451.84,216.19,436.91,203.21,422.86,191,415.07,182.82,415.07Z" fill="#4d5152"/><path d="M256,421.16a8.26,8.26,0,0,1-8.08-10c.44-2,11-49.4,35.75-76.25h0c12.11-13.1,23.66-21.57,34.34-25.18,11.22-3.78,21.47-2.09,28.87,4.75,5.62,5.18,21.12,25.17-15.3,64.64-24.8,26.85-71.22,41.12-73.19,41.71A8.31,8.31,0,0,1,256,421.16Zm39.82-75.06C282,361,273,384.43,268.22,399.66c14.81-6,37.42-16.86,51.21-31.78,17-18.46,23.41-34.66,16.24-41.28-1.05-1-4.27-4-12.37-1.23-5.52,1.86-14.76,7-27.48,20.73Z" fill="#4d5152"/><path d="M256,421.16a8.28,8.28,0,0,1-2.39-.35c-2-.59-48.37-14.86-73.16-41.71-36.41-39.46-20.93-59.46-15.32-64.64s26.78-19,63.22,20.43h0c24.77,26.85,35.29,74.25,35.73,76.25a8.27,8.27,0,0,1-8.08,10Zm-73.18-96.91a9.24,9.24,0,0,0-6.48,2.34c-7.16,6.62-.78,22.83,16.25,41.29,13.77,14.92,36.39,25.79,51.19,31.78C239,384.43,230,361,216.19,346.1h0C203.21,332,191,324.25,182.81,324.25Z" fill="#4d5152"/><path d="M256.59,324.33A56.32,56.32,0,0,1,204.29,289a56.35,56.35,0,0,1-74.54-73.68,56.19,56.19,0,0,1-.32-104.69,55.72,55.72,0,0,1,11.47-62.71,56.29,56.29,0,0,1,62-12,56.35,56.35,0,0,1,104.85-.49,56.28,56.28,0,0,1,74.46,73.63,56.35,56.35,0,0,1,.61,104.8,56.35,56.35,0,0,1-73.71,74.53A56.14,56.14,0,0,1,256.59,324.33Zm-47.29-56a8.27,8.27,0,0,1,8.13,6.78,39.8,39.8,0,0,0,78.38-.41,8.27,8.27,0,0,1,12.86-5.41,39.79,39.79,0,0,0,55.09-55.73,8.26,8.26,0,0,1,5.29-12.91,39.77,39.77,0,0,0-.48-78.31,8.27,8.27,0,0,1-5.4-12.86,39.71,39.71,0,0,0-55.65-55,8.27,8.27,0,0,1-12.93-5.29,39.77,39.77,0,0,0-78.34.34A8.26,8.26,0,0,1,203.38,55a39.75,39.75,0,0,0-50.78,4.58,39.32,39.32,0,0,0-4,51.22,8.27,8.27,0,0,1-5.3,13,39.64,39.64,0,0,0,.09,78.16,8.27,8.27,0,0,1,5.4,12.86,39.77,39.77,0,0,0,55.69,55.05A8.27,8.27,0,0,1,209.3,268.37Z" fill="#4d5152"/><path d="M256,247.8a85.63,85.63,0,1,1,85.65-85.62A85.74,85.74,0,0,1,256,247.8Zm0-154.73a69.1,69.1,0,1,0,69.15,69.11A69.19,69.19,0,0,0,256,93.06Z" fill="#4d5152"/><path d="M256,512a8.27,8.27,0,0,1-8.27-8.27V316.06a8.27,8.27,0,1,1,16.53,0V503.73A8.27,8.27,0,0,1,256,512Z" fill="#4d5152"/></g></svg>