<svg id="Layer_1" data-name="Layer 1" xmlns="http://www.w3.org/2000/svg" viewBox="0 0 512 512"><title>leaves</title><g id="leaves"><g id="sun"><path d="M460.22,238.55c0,112.78-91.44,204.22-204.21,204.22S51.79,351.33,51.79,238.55,143.22,34.33,256,34.33,460.22,125.78,460.22,238.55Z" fill="#ffd58e"/></g><g id="leaves-2" data-name="leaves"><rect x="247.73" y="250.8" width="16.56" height="261.2" fill="#4d5152"/><path d="M293.27,63.06A490.21,490.21,0,0,0,261,10.43a6.11,6.11,0,0,0-9.89,0,486.37,486.37,0,0,0-32.32,52.63c-21.63,40.69-32.58,75.35-32.58,103,0,35.71,18.62,57.44,34.26,69.36a105.77,105.77,0,0,0,34,17.34A6.81,6.81,0,0,0,256,253a6.68,6.68,0,0,0,1.52-.19,105.62,105.62,0,0,0,34.05-17.34c15.63-11.93,34.27-33.65,34.27-69.36C325.85,138.41,314.89,103.75,293.27,63.06Z" fill="#a5bf8f"/><path d="M256,261.25a15.07,15.07,0,0,1-3.42-.41A113,113,0,0,1,215.4,242c-17.12-13-37.52-36.82-37.52-75.95,0-29,11.29-65,33.55-106.91a492.57,492.57,0,0,1,33-53.63c5.33-7.36,17.86-7.41,23.27,0a498.42,498.42,0,0,1,32.93,53.61h0c22.26,41.89,33.54,77.85,33.54,106.9,0,39.11-20.41,62.89-37.53,75.95a113.26,113.26,0,0,1-37,18.77A15,15,0,0,1,256,261.25Zm0-243.47A498,498,0,0,0,226.06,67c-21,39.46-31.62,72.82-31.62,99.13,0,32.34,16.86,52,31,62.77A100,100,0,0,0,256,244.61a99.38,99.38,0,0,0,30.56-15.75c14.14-10.79,31-30.44,31-62.77,0-26.31-10.64-59.66-31.61-99.14h0A492.87,492.87,0,0,0,256,17.78Zm1.77-2.49h0Z" fill="#4d5152"/><path d="M256,256.45a8.28,8.28,0,0,1-8.28-8.29V92.23a8.28,8.28,0,1,1,16.56,0V248.17A8.28,8.28,0,0,1,256,256.45Z" fill="#4d5152"/><path d="M254.83,162.42a8.25,8.25,0,0,1-6.17-2.75L221,128.9a8.28,8.28,0,1,1,12.32-11.07L261,148.6a8.28,8.28,0,0,1-6.16,13.82Z" fill="#4d5152"/><path d="M257.17,162.42A8.29,8.29,0,0,1,251,148.6l27.66-30.77A8.28,8.28,0,0,1,291,128.9l-27.66,30.77A8.25,8.25,0,0,1,257.17,162.42Z" fill="#4d5152"/><path d="M254.5,224.41a8.29,8.29,0,0,1-6.17-2.75l-35.43-39.44a8.28,8.28,0,1,1,12.32-11.07l35.43,39.44a8.28,8.28,0,0,1-6.16,13.82Z" fill="#4d5152"/><path d="M257.5,224.41a8.28,8.28,0,0,1-6.16-13.82l35.44-39.44a8.28,8.28,0,1,1,12.32,11.07l-35.44,39.44A8.29,8.29,0,0,1,257.5,224.41Z" fill="#4d5152"/><path d="M85.59,238a435.28,435.28,0,0,0-55-1.75,5.46,5.46,0,0,0-4.85,7.37A435.72,435.72,0,0,0,49,293.52c19.69,36,40.1,61.19,60.68,74.77,26.58,17.51,51.89,14.29,68.45,8.49A94,94,0,0,0,207.75,360a5.52,5.52,0,0,0,1.5-2.28,93.61,93.61,0,0,0,3.8-33.84c-1.22-17.5-8.24-42-34.81-59.52C157.63,250.76,126.46,241.92,85.59,238Z" fill="#a5bf8f"/><path d="M151.74,389.71c-14.12,0-30.12-3.67-46.58-14.5-21.73-14.33-43.06-40.49-63.4-77.72a440.78,440.78,0,0,1-23.81-50.92A13.74,13.74,0,0,1,30.17,228a442.92,442.92,0,0,1,56.19,1.78h0c42.25,4,74.7,13.29,96.43,27.61,29.39,19.36,37.17,46.5,38.51,65.87a101.82,101.82,0,0,1-4.24,37.13,14.13,14.13,0,0,1-1.54,3.11,13.59,13.59,0,0,1-2.08,2.46,101.79,101.79,0,0,1-32.56,18.62A88.55,88.55,0,0,1,151.74,389.71ZM34.91,244.44A448,448,0,0,0,56.3,289.56c19,34.83,38.54,59,58,71.82C138,377,160.64,374.15,175.43,369a87.78,87.78,0,0,0,26.21-14.66,87.46,87.46,0,0,0,3.15-29.88c-1.09-15.64-7.36-37.55-31.1-53.18-19.45-12.82-49.35-21.22-88.87-25h0A442.65,442.65,0,0,0,34.91,244.44Zm-3.9.13h0Z" fill="#4d5152"/><path d="M251.2,402.2a8.26,8.26,0,0,1-4.75-1.51L84.25,286.86a8.28,8.28,0,1,1,9.52-13.55L256,387.13a8.28,8.28,0,0,1-4.77,15.06Z" fill="#4d5152"/><path d="M98,325.1a8.28,8.28,0,0,1-1.22-16.47l36.47-5.48a8.28,8.28,0,1,1,2.46,16.37L99.28,325A8.33,8.33,0,0,1,98,325.1Z" fill="#4d5152"/><path d="M135.67,317.87a8.29,8.29,0,0,1-8-6.18L118.31,276a8.28,8.28,0,0,1,16-4.21l9.35,35.68a8.28,8.28,0,0,1-5.91,10.11A8.1,8.1,0,0,1,135.67,317.87Z" fill="#4d5152"/><path d="M133.76,357.3a8.28,8.28,0,0,1-1.22-16.47l46.74-7a8.28,8.28,0,1,1,2.46,16.37l-46.74,7A8.33,8.33,0,0,1,133.76,357.3Z" fill="#4d5152"/><path d="M182,348a8.29,8.29,0,0,1-8-6.18l-12-45.72a8.28,8.28,0,1,1,16-4.21l12,45.72a8.29,8.29,0,0,1-5.91,10.12A8.49,8.49,0,0,1,182,348Z" fill="#4d5152"/><path d="M426.43,238a435.31,435.31,0,0,1,55-1.75,5.43,5.43,0,0,1,4.83,7.37A434.87,434.87,0,0,1,463,293.52c-19.67,36-40.09,61.19-60.69,74.77-26.58,17.51-51.89,14.29-68.44,8.49A94,94,0,0,1,304.26,360a5.82,5.82,0,0,1-.91-1.06,5.32,5.32,0,0,1-.6-1.22,94.06,94.06,0,0,1-3.81-33.84c1.23-17.5,8.25-42,34.83-59.52C354.37,250.76,385.54,241.92,426.43,238Z" fill="#a5bf8f"/><path d="M360.27,389.71a88.55,88.55,0,0,1-29.15-5.1,102.62,102.62,0,0,1-32.37-18.46,14.47,14.47,0,0,1-2.34-2.73A12.9,12.9,0,0,1,295,360.5a101.81,101.81,0,0,1-4.28-37.22c1.36-19.38,9.15-46.53,38.55-65.88,21.71-14.32,54.15-23.61,96.42-27.61h0A438.62,438.62,0,0,1,481.91,228,13.72,13.72,0,0,1,494,246.58a440.79,440.79,0,0,1-23.81,50.91c-20.33,37.23-41.66,63.38-63.39,77.71C390.39,386,374.39,389.71,360.27,389.71Zm-49.9-35.4A87.52,87.52,0,0,0,336.58,369c14.79,5.18,37.38,8.06,61.15-7.59,19.45-12.82,39-37,58-71.82a446.31,446.31,0,0,0,21.39-45.12,444.07,444.07,0,0,0-49.89,1.86c-39.53,3.74-69.43,12.14-88.86,24.95-23.75,15.63-30,37.55-31.13,53.19A87.85,87.85,0,0,0,310.37,354.31Zm.21.67h0ZM481.07,244.57h0Z" fill="#4d5152"/><path d="M260.82,402.2A8.28,8.28,0,0,1,256,387.13L418.24,273.31a8.28,8.28,0,1,1,9.52,13.55L265.57,400.69A8.26,8.26,0,0,1,260.82,402.2Z" fill="#4d5152"/><path d="M414,325.1a8.33,8.33,0,0,1-1.24-.1l-36.49-5.48a8.28,8.28,0,1,1,2.46-16.37l36.49,5.48A8.28,8.28,0,0,1,414,325.1Z" fill="#4d5152"/><path d="M376.34,317.87a8.14,8.14,0,0,1-2.11-.28,8.28,8.28,0,0,1-5.91-10.11l9.36-35.68a8.28,8.28,0,0,1,16,4.21l-9.36,35.68A8.29,8.29,0,0,1,376.34,317.87Z" fill="#4d5152"/><path d="M378.25,357.3a8.33,8.33,0,0,1-1.24-.1l-46.73-7a8.28,8.28,0,1,1,2.46-16.37l46.73,7a8.28,8.28,0,0,1-1.22,16.47Z" fill="#4d5152"/><path d="M330,348a8.14,8.14,0,0,1-2.11-.28A8.28,8.28,0,0,1,322,337.63l12-45.72a8.28,8.28,0,0,1,16,4.21l-12,45.72A8.29,8.29,0,0,1,330,348Z" fill="#4d5152"/></g></g></svg>