<svg id="Layer_1" data-name="Layer 1" xmlns="http://www.w3.org/2000/svg" viewBox="0 0 512 512"><title>tulip</title><g id="tulip"><g id="fill"><path d="M252.94,8.33c.32,0,.65,0,1,0,12.76,10.4,24.78,24.49,36.09,39.42a260.56,260.56,0,0,1,31.8,53.17c9.16,20.42,17.93,52.62,7.53,78.51-4.78,11.88-18.73,28.7-31.13,37.23-8.65,6-25,12-37.05,8.78.05-4.42,3.34-5.21,5.51-7.53,1.24-1.27,2-2.92,3.23-4.51,28.76-36.45,17.87-102.31,4.83-147.07A389,389,0,0,0,253,9.79C253,9.32,253,8.82,252.94,8.33Z" fill="#ffcecf" fill-rule="evenodd"/><path d="M260.36,220.59c-13.44,10.74-40.9,4.51-52.71-3.73-1.54-1.07-3.45-3.28-5-4.65-16.32-14.14-27.24-46.2-19.09-76.09a100.32,100.32,0,0,1,13.37-30.18c2.68-4.18,5.14-8.73,7.79-12.47,2.73-3.91,6.56-7.22,9.28-11.07,2.84-4.13,5-8.45,7.77-12.47a165.3,165.3,0,0,0,14.53-25.86,148.69,148.69,0,0,0,10-30.08c0-.47.57-.39,1-.52-.12-.43.17-.47.47-.49s.65,0,1,0" fill="#ffcecf" fill-rule="evenodd"/><path d="M257.41,376V306.91L107.5,207.35S194.46,376,257.41,376Z" fill="#a5bf8f"/><path d="M257.41,440.4V371.27L404.5,271.7S320.35,440.4,257.41,440.4Z" fill="#a5bf8f"/></g><g id="outline"><rect x="249.13" y="229.79" width="16.56" height="282.21" fill="#4d5152"/><path d="M268.44,234.57a36.11,36.11,0,0,1-9.46-1.19,8.27,8.27,0,0,1-6.12-8.09c.09-7.23,4.62-10.67,6.8-12.32a7.46,7.46,0,0,0,1-.77,7.65,7.65,0,0,0,.89-1.27,32.72,32.72,0,0,1,1.88-2.7c28-35.49,14.14-102.71,3.39-139.62a379.47,379.47,0,0,0-21.25-55.28,8.25,8.25,0,0,1-.77-2.92l-.09-1.76a8.31,8.31,0,0,1,8.27-8.6l.28,0a8.12,8.12,0,0,1,5.92,1.83c11.61,9.46,23.51,22.44,37.47,40.84a268.06,268.06,0,0,1,32.75,54.78c6.63,14.78,20.66,52.65,7.65,85-5.45,13.56-20.44,31.55-34.11,41C295.56,228.5,281.67,234.57,268.44,234.57ZM275.81,43q3.8,10.56,6.86,21c11.5,39.43,25.92,111.19-4.95,152.79a51.4,51.4,0,0,0,15.79-6.95c11-7.58,23.88-22.92,28.14-33.51,10.93-27.18-2.9-62-7.4-72a251.87,251.87,0,0,0-30.83-51.54Q279.5,47.54,275.81,43Z" fill="#4d5152"/><path d="M240.69,234.63c-14.67,0-29.85-5.46-37.76-11a34.07,34.07,0,0,1-4.13-3.66c-.56-.55-1.1-1.1-1.6-1.53-17.51-15.18-31.05-50-21.64-84.52a108.23,108.23,0,0,1,14.38-32.46c1-1.58,2-3.2,2.95-4.81,1.68-2.8,3.34-5.55,5.07-8a66,66,0,0,1,5.33-6.41,50.54,50.54,0,0,0,3.93-4.65c1.26-1.84,2.42-3.8,3.57-5.75,1.34-2.25,2.67-4.49,4.15-6.65a156.52,156.52,0,0,0,13.79-24.56,139.84,139.84,0,0,0,9.44-28.45h0a9.44,9.44,0,0,1,3-4.76,9.63,9.63,0,0,1,5.71-2.73c.61,0,1.16-.08,1.73-.08a8.28,8.28,0,0,1,4.77,15,157.24,157.24,0,0,1-9.6,27.76,172.61,172.61,0,0,1-15.25,27.13c-1.28,1.86-2.4,3.78-3.54,5.7-1.35,2.27-2.7,4.55-4.24,6.78a64.78,64.78,0,0,1-5.28,6.34,50.56,50.56,0,0,0-4,4.79c-1.52,2.16-2.95,4.55-4.39,7-1.05,1.75-2.11,3.52-3.21,5.22a92,92,0,0,0-12.36,27.89c-7.36,27,2.62,55.63,16.53,67.67.76.66,1.59,1.48,2.42,2.3a18.63,18.63,0,0,0,1.94,1.83c10.07,7,33.25,11.65,42.79,4a8.27,8.27,0,0,1,10.33,12.93C258.67,232.53,249.77,234.63,240.69,234.63Z" fill="#4d5152"/><path d="M257.41,384.32c-66.08,0-148.13-155.46-157.27-173.18a8.28,8.28,0,0,1,11.94-10.69L262,300a8.28,8.28,0,0,1,3.7,6.89V376A8.28,8.28,0,0,1,257.41,384.32ZM131.1,233c29.29,50.19,79.58,123.85,118,133.71V311.35Z" fill="#4d5152"/><path d="M257.41,448.68a8.28,8.28,0,0,1-8.28-8.28V371.27a8.27,8.27,0,0,1,3.64-6.85l147.09-99.57a8.28,8.28,0,0,1,12.05,10.55C403.06,293.14,323.57,448.68,257.41,448.68Zm8.28-73V431c38.25-9.87,87.26-83.51,115.69-133.66Z" fill="#4d5152"/></g></g></svg>