<svg id="Layer_1" data-name="Layer 1" xmlns="http://www.w3.org/2000/svg" viewBox="0 0 512 512"><title>daisy</title><g id="flower"><g id="fill"><path d="M118.29,410.93C57.64,382.35,26.18,321.6,31,311.37s71.69-24.57,132.34,4,91.3,87,87.3,99.57S178.94,439.54,118.29,410.93Z" fill="#a5bf8f"/><path d="M393.73,410.93c60.63-28.58,92.1-89.34,87.27-99.57s-71.7-24.57-132.35,4-91.31,87-87.28,99.57S333.05,439.54,393.73,410.93Z" fill="#a5bf8f"/><path d="M332.82,153.44A76.83,76.83,0,1,1,256,76.58,76.81,76.81,0,0,1,332.82,153.44Z" fill="#ffd58e"/><path d="M303.38,213.14c15.5,24.69,45,69.67,73.45,31.49,27.41-36.74-24.24-53.09-51.84-61.35A77.34,77.34,0,0,1,303.38,213.14Z" fill="#fdfdf6"/><path d="M300.82,298.4C344,284.94,313,242.07,295.46,219a76.2,76.2,0,0,1-35.72,12.08C257.82,260.39,256,312.45,300.82,298.4Z" fill="#fdfdf6"/><path d="M207.68,297.22c42.26,14.35,43-36.82,42.39-66a76.12,76.12,0,0,1-36.9-11.53C194.29,242.47,163.9,282.45,207.68,297.22Z" fill="#fdfdf6"/><path d="M182.17,182.26c-28.76,7.43-75.58,22-49.19,59.28,25.35,36,55.48-3.24,72.37-27.35A77,77,0,0,1,182.17,182.26Z" fill="#fdfdf6"/><path d="M179.87,133.61c-27.66-11-74-26.65-74.56,19-.6,43.7,46.08,30.16,74,20.55a77.94,77.94,0,0,1-2.37-18.68A76.3,76.3,0,0,1,179.87,133.61Z" fill="#fdfdf6"/><path d="M207.15,93.53c-15.84-25.06-44.42-66.13-72-29.11-26.13,35,19.54,51.49,47.8,60.11A76.87,76.87,0,0,1,207.15,93.53Z" fill="#fdfdf6"/><path d="M211.18,10.66c-42.07,13.1-13.8,54.05,3.94,77.52a76.38,76.38,0,0,1,37.14-10.44C254.18,48.37,255.86-3.39,211.18,10.66Z" fill="#fdfdf6"/><path d="M304.3,11.78c-42.37-14.37-43,37.14-42.37,66.34a76.1,76.1,0,0,1,35.36,13.1C316,68.81,349.3,26.95,304.3,11.78Z" fill="#fdfdf6"/><path d="M325.72,127.79c28.1-7.08,81-21.2,53.28-60.33-26.24-37.18-57.57,6.09-74.06,29.86A76.78,76.78,0,0,1,325.72,127.79Z" fill="#fdfdf6"/><path d="M328,173.79c26.86,10.86,78.07,30.65,78.63-17.41.63-45.92-51-28.65-78.09-19.09a74.41,74.41,0,0,1-.54,36.51Z" fill="#fdfdf6"/></g><g id="line"><path d="M198.39,436.86c-25,0-55-4.95-83.63-18.44h0c-60.59-28.56-99.39-93.31-91.25-110.59,6.82-14.5,47.65-17,52.28-17.28,18.2-.92,54.37,0,91.07,17.31,60.24,28.4,97.88,90.08,91.65,109.57-1.54,4.8-5.78,8.63-13,11.76C235.17,433.7,218.37,436.86,198.39,436.86ZM38.8,315c1,12.36,30.13,63.46,83,88.39h0c55.16,26,113.24,15.53,121,8.48.49-10.73-27.63-63-83-89.07C107,298,49,308,38.8,315Zm204.39,96.49ZM37.94,315.76Zm.86-1.83Z" fill="#4d5152"/><path d="M313.62,436.87c-20,0-36.81-3.17-47.17-7.68-7.18-3.13-11.42-7-12.95-11.74-6.25-19.49,31.37-81.17,91.64-109.58,60.61-28.52,135.23-17.28,143.36,0s-30.64,82-91.22,110.59h0A199,199,0,0,1,313.62,436.87ZM269.26,412c7.93,7,65.89,17.41,120.94-8.53,52.89-24.93,82-76,83-88.39-10.17-7.07-68.15-17.11-121,7.8C297.1,348.81,269,400.63,269.26,412Zm124.47-1h0Zm80.34-95.17Zm-.86-1.83Z" fill="#4d5152"/><path d="M353.27,267.69l-1.22,0c-24.82-1-44.89-32.95-55.68-50.12l-3.81-6.07,5.46-4.63a69.37,69.37,0,0,0,19.3-26.67l2.83-7,7.21,2.16c19.65,5.87,56.24,16.81,64,40.39,3.53,10.66.86,22-7.93,33.83C374.51,261.6,364.35,267.69,353.27,267.69Zm-39.21-53.16c9,14,24.69,36,38.65,36.6,5.66,0,11.65-3.63,17.48-11.45,5.45-7.3,7.25-13.43,5.49-18.73-4.39-13.28-30-22.59-46.2-27.64A86.46,86.46,0,0,1,314.06,214.52Z" fill="#4d5152"/><path d="M287.07,309a31.13,31.13,0,0,1-19.82-6.51c-17.12-13.44-17.7-42.56-15.78-72l.47-7.15,7.14-.57A68.25,68.25,0,0,0,290.93,212l6.46-4.21,4.66,6.13c18.18,23.93,34.09,48.94,27.45,69.69-3.4,10.67-12.23,18.28-26.2,22.64h0A54.48,54.48,0,0,1,287.07,309Zm-19.49-70.61c-.85,16.25-1,42.53,9.9,51.09,4.54,3.57,11.57,3.91,20.86,1h0c8.66-2.69,13.69-6.58,15.38-11.89,4.23-13.22-10.56-35.34-20.47-48.76A85.07,85.07,0,0,1,267.58,238.43Z" fill="#4d5152"/><path d="M221.12,308a50.34,50.34,0,0,1-16.1-2.94c-14.69-5-23.74-13.11-26.9-24.21-5.94-20.86,11.16-45.31,28.67-66.46l4.62-5.59,6.14,3.85a68.26,68.26,0,0,0,32.9,10.27l7.72.38.15,7.72c.57,28-1.21,58.32-18.78,71.17A30.4,30.4,0,0,1,221.12,308Zm-6-77.71c-9.64,12-24.83,33-21.12,46,1.58,5.55,7.06,9.94,16.28,13.06h0c8.6,2.93,15,2.74,19.45-.55,11-8,12.17-34.3,12.11-50.11A84.77,84.77,0,0,1,215.17,230.29Z" fill="#4d5152"/><path d="M155.77,264.34c-11.17,0-21.11-6.06-29.55-18-8.94-12.62-11.47-24.52-7.5-35.35,7.44-20.3,35.19-29.95,61.38-36.71l7.12-1.84,2.66,6.86a68.92,68.92,0,0,0,20.7,28.49l6,4.86-4.42,6.31c-15.72,22.43-34.7,45.38-56.33,45.41Zm21.68-72.27c-14.6,4-38.56,12-43.18,24.58-2,5.42-.14,12.18,5.47,20.1,5.24,7.44,10.48,11,16,11h0c13.45,0,29.46-19.88,38.54-32.37A85.47,85.47,0,0,1,177.45,192.07Z" fill="#4d5152"/><path d="M134.69,191.29c-9.21,0-17.58-1.9-24.31-6.77-9.06-6.56-13.55-17.32-13.35-32,.19-15.5,5.15-26.63,14.74-33.07,18-12.05,46.06-3.5,71.16,6.45l7,2.77-2,7.19a67.89,67.89,0,0,0-2.64,18.64,69,69,0,0,0,2.13,16.7l1.81,7.34L182,181C166.24,186.44,149.39,191.29,134.69,191.29Zm-.91-61.19c-5,0-9.47.89-12.8,3.12-4.8,3.22-7.29,9.79-7.4,19.53-.13,9.11,2,15.11,6.5,18.37,10.86,7.84,35.15,1.28,49.64-3.43a83,83,0,0,1-1.09-13.17,84.05,84.05,0,0,1,1.52-15.81C160.23,135,145.52,130.1,133.78,130.1Z" fill="#4d5152"/><path d="M187.7,134.62l-7.13-2.17c-25.89-7.89-53.26-18.72-60-39.22-3.48-10.64-.81-22,8-33.76,9.27-12.45,19.63-18.54,31.38-18.11,21.71.83,39.59,24.6,54.22,47.75l4,6.39-6,4.6a68.64,68.64,0,0,0-21.56,27.65ZM158.83,57.89c-5.62,0-11.34,3.85-17,11.47-5.44,7.3-7.25,13.42-5.51,18.72,4.18,12.77,27.83,21.74,42.31,26.42a85.22,85.22,0,0,1,17.63-22.63c-8.44-12.86-23.48-33.45-37-34Z" fill="#4d5152"/><path d="M213,99l-4.44-5.86c-16.59-21.94-32.65-47.15-26-67.79,3.42-10.65,12.23-18.26,26.2-22.61h0c14.81-4.68,27-3.4,36,3.74,17.11,13.43,17.69,42.43,15.79,71.77L260,85.86l-7.61.14a68.52,68.52,0,0,0-33.13,9.32Zm11.86-82.46a38.06,38.06,0,0,0-11.16,2h0C205,21.25,200,25.14,198.25,30.44c-4.17,13,10.14,34.64,19.27,47.12A85.55,85.55,0,0,1,244.43,70c.76-15.74.78-42-9.91-50.43A15.22,15.22,0,0,0,224.82,16.57Z" fill="#4d5152"/><path d="M298.81,102.33,292.59,98a68.11,68.11,0,0,0-31.52-11.68l-7.27-.76-.14-7.3c-.6-29.54,1.26-58.64,18.77-71.47,9-6.62,20.66-7.58,34.51-2.88h0c14.73,5,23.79,13.12,26.93,24.26,6.76,23.91-17.3,52.81-30.23,68.32ZM270.11,71a85,85,0,0,1,25.41,9.38C306,67.45,321.73,46,318,32.7c-1.58-5.57-7.06-10-16.29-13.08h0c-8.57-2.92-14.93-2.73-19.43.56C271.11,28.31,270,55.13,270.11,71Z" fill="#4d5152"/><path d="M320.55,137.62l-2.59-7a68.85,68.85,0,0,0-18.54-27.19L294,98.6l4.17-6c11.59-16.71,33.16-47.82,58-47.93h.13c11.17,0,21.1,6.06,29.54,18,9,12.66,11.49,24.6,7.47,35.45-8.63,23.35-45.62,32.66-65.49,37.67Zm-4.8-41.3A85.61,85.61,0,0,1,330.56,118c16.32-4.33,42.32-12.48,47.16-25.59,2-5.42.17-12.21-5.46-20.17-5.24-7.41-10.47-11-16-11h-.05C342.18,61.29,325.47,82.66,315.75,96.32Z" fill="#4d5152"/><path d="M378.16,195.41c-18.69,0-39.94-8.59-53.21-14l-6.74-2.72,1.83-7a66.24,66.24,0,0,0,.48-32.55l-1.66-7.21,7-2.45c19.4-6.83,55.51-19.52,75.68-5,9.12,6.56,13.64,17.33,13.44,32.05-.19,15.55-5.17,26.71-14.83,33.14C393.87,193.8,386.25,195.41,378.16,195.41Zm-40.54-26.72c15.74,6.14,41.65,14.94,53.34,7.16,4.82-3.22,7.33-9.8,7.44-19.58.13-9.12-2-15.13-6.55-18.39-11.4-8.16-37.74-.56-53.83,4.89a80.91,80.91,0,0,1-.4,25.93Z" fill="#4d5152"/><rect x="247.72" y="272.95" width="16.56" height="239.05" fill="#4d5152"/></g></g></svg>