<svg id="Layer_1" data-name="Layer 1" xmlns="http://www.w3.org/2000/svg" viewBox="0 0 512 512"><title>japanese-blossom</title><g id="blossom"><g id="fill"><path d="M441.58,255.74C441.58,358.2,358.49,441.3,256,441.3S70.41,358.2,70.41,255.74,153.52,70.14,256,70.14,441.58,153.22,441.58,255.74Z" fill="#a5bf8f"/><path d="M166.59,97.7a89.4,89.4,0,1,1,178.8,0c0,49.36-89.38,131-89.38,131C244.91,227.26,166.59,147.06,166.59,97.7Z" fill="#ffcecf"/><path d="M187.27,371.58a89.4,89.4,0,1,1-89.4-154.84C140.62,192.06,256,228.68,256,228.68,260.32,239,230,346.91,187.27,371.58Z" fill="#ffcecf"/><path d="M414.13,216.74a89.4,89.4,0,1,1-89.41,154.84C282,346.91,256,228.68,256,228.68,262.76,219.79,371.37,192.06,414.13,216.74Z" fill="#ffcecf"/></g><g id="line"><path d="M258.75,237.37l-3.8-.48c-17.6-2.25-96.64-88.79-96.64-139.19a97.68,97.68,0,1,1,195.36,0c0,52.41-88.33,133.66-92.09,137.09ZM256,16.55A81.23,81.23,0,0,0,174.87,97.7c0,41.11,61.9,108,79.75,121,26.45-25.05,82.49-85.5,82.49-121A81.22,81.22,0,0,0,256,16.55Z" fill="#4d5152"/><path d="M142.72,391.88a98.38,98.38,0,0,1-25.43-3.37A97.68,97.68,0,0,1,93.73,209.57c45.41-26.2,159.92,9.67,164.78,11.21l3.65,1.16,1.48,3.53c6.86,16.37-28.59,128.09-72.22,153.27A97.12,97.12,0,0,1,142.72,391.88Zm-2-175.38c-15.67,0-29.43,2.07-38.68,7.41a81.12,81.12,0,1,0,81.12,140.51h0C218.74,343.86,245.7,256.82,248,234.88,223.61,227.63,177,216.5,140.69,216.5Z" fill="#4d5152"/><path d="M369.27,391.88a97.12,97.12,0,0,1-48.69-13.13C275.2,352.55,249,235.43,247.92,230.45l-.83-3.74,2.32-3c10.75-14.13,125.21-39.3,168.86-14.09h0a97.74,97.74,0,0,1-49,182.31ZM265.37,232.49c8.47,35.44,32.8,114.2,63.49,131.93A81.12,81.12,0,1,0,410,223.91h0C374.4,203.36,285.53,223.53,265.37,232.49Z" fill="#4d5152"/><rect x="247.72" y="255.17" width="16.56" height="256.83" fill="#4d5152"/><path d="M354.74,291.92a8.2,8.2,0,0,1-4.19-1.15L256.12,235l-89.39,55.64A8.28,8.28,0,0,1,158,276.62l93.65-58.29a8.26,8.26,0,0,1,8.58-.1L359,276.52a8.27,8.27,0,0,1-4.21,15.4Z" fill="#4d5152"/><path d="M256,227.47a8.28,8.28,0,0,1-8.28-8.28V114.32a8.28,8.28,0,0,1,16.56,0V219.2A8.28,8.28,0,0,1,256,227.47Z" fill="#4d5152"/></g></g></svg>