<svg id="Layer_1" data-name="Layer 1" xmlns="http://www.w3.org/2000/svg" viewBox="0 0 512 512"><title>white-flower-leaf</title><g id="flower"><g id="fill"><path d="M487.77,205.67c0,113.59-92.07,205.66-205.65,205.66S76.45,319.26,76.45,205.67,168.56,0,282.13,0,487.77,92.09,487.77,205.67Z" fill="#ffd58e"/><path d="M269.57,400.17C304.65,347,368,303,481.37,300.53c0,0-105.93,167.11-170.56,179.22" fill="#a5bf8f"/><path d="M400.05,118c-9-27.67-38.32-42.94-65.61-34.23-.27-28.57-23.82-51.65-52.82-51.65s-52.55,23.08-52.82,51.67c-27-8-55.72,7.18-64.62,34.5s5.41,56.38,31.85,65.84c0,.06-.09.1-.13.17C179,207.64,184.39,240.43,208,257.59s56.43,12.19,73.36-11c16.93,23.22,49.74,28.18,73.38,11s29-49.9,12.14-73.17C394.23,175.49,409.1,145.8,400.05,118Z" fill="#fdfdf6"/><path d="M268.89,118.21A40.38,40.38,0,1,1,243,169.1,40.43,40.43,0,0,1,268.89,118.21Z" fill="#ffcecf"/><path d="M197.82,350.8c31.17,83.5,14.33,152.92,14.33,152.92h107s47.17-315-276.83-322.18C42.29,181.54,167.69,270.08,197.82,350.8Z" fill="#a5bf8f"/></g><g id="line"><path d="M324.34,484.32l-6.16-15.37c50.67-20.29,122.64-122.52,147.42-159.49-64.14,3.83-115.8,22.29-153.76,55l-10.79-12.55c44-37.89,104.63-57.94,180.14-59.6l15.44-.34-8.27,13C484.42,311.19,391,457.6,324.34,484.32Z" fill="#4d5152"/><rect x="273.83" y="256.29" width="16.56" height="42.52" fill="#4d5152"/><path d="M323.48,276a60.41,60.41,0,0,1-42.1-16.9,59.52,59.52,0,0,1-23.44,14,8.28,8.28,0,0,1-5-15.77,42.94,42.94,0,0,0,21.79-15.72c3.12-4.27,10.26-4.28,13.38,0,14.2,19.5,41.95,23.63,61.83,9.21s24.47-42.07,10.3-61.61a8.27,8.27,0,0,1,4.13-12.73c23-7.51,35.46-32.6,27.86-55.94S359.9,84.4,337,91.71a8.28,8.28,0,0,1-10.79-7.8c-.22-24-20.21-43.45-44.54-43.45S237.3,60,237.07,83.92a8.28,8.28,0,0,1-10.63,7.85c-23-6.79-46.86,6-54.4,29.14s4.27,47.44,26.77,55.48a8.29,8.29,0,0,1,4.39,11.9,8.17,8.17,0,0,1-.57.88l0,0a43.25,43.25,0,0,0-8.25,24,8.5,8.5,0,0,1-8.56,8,8.28,8.28,0,0,1-8-8.56,59.55,59.55,0,0,1,6.31-24.79c-24.93-13.87-37-43.7-27.81-72.07S193,70.34,221.44,73.86c5.06-28.31,30.21-50,60.18-50s55,21.56,60.15,49.8c28.51-4,56.89,13.21,66.16,41.8s-3.53,59.31-29.06,72.81c12.72,25.9,5.15,58.24-19.25,76A61.39,61.39,0,0,1,323.48,276Z" fill="#4d5152"/><path d="M281.31,205.3a48.67,48.67,0,0,1-15-95h0a48.66,48.66,0,1,1,15,95Zm-9.87-79.22a32.11,32.11,0,1,0,40.48,20.61,31.91,31.91,0,0,0-40.48-20.61Z" fill="#4d5152"/><path d="M326.25,512H201.65l2.45-10.22c.16-.67,15.8-68.16-14-148.09h0C161.16,276.27,38.76,189.18,37.52,188.3L15.37,172.66l27.11.61c99,2.2,174.14,32.94,223.33,91.35,81.82,97.15,62.36,234.53,61.49,240.32ZM222.12,495.44h89.61c2.73-29,8.23-140.92-58.65-220.25-41.52-49.24-103.4-77.44-184.18-84,37.86,29.65,113.51,94.65,136.68,156.72C230.62,415,225.66,472.71,222.12,495.44Z" fill="#4d5152"/></g></g></svg>