<svg id="Layer_1" data-name="Layer 1" xmlns="http://www.w3.org/2000/svg" viewBox="0 0 512 512"><title>branches</title><g id="catkins-branch"><path d="M452.91,256c0,113.77-92.26,206-206,206s-206-92.27-206-206,92.26-206,206-206S452.91,142.21,452.91,256Z" fill="#a5bf8f"/><g id="branch"><path d="M249,512a8.1,8.1,0,0,1-8.1-8.1V11.52a8.1,8.1,0,0,1,16.19,0V503.9A8.1,8.1,0,0,1,249,512Z" fill="#4d5152"/><path d="M249,319.85a8.07,8.07,0,0,1-5.2-1.89L47.63,153.34A8.1,8.1,0,1,1,58,140.94L254.2,305.55a8.1,8.1,0,0,1-5.21,14.3Z" fill="#4d5152"/><rect x="218.09" y="256.66" width="256.05" height="16.2" transform="translate(-89.21 284.45) rotate(-40)" fill="#4d5152"/></g><g id="catkins"><g id="fill"><path d="M272.92,41.44c0,18.4-10.57,33.32-23.62,33.33s-23.59-14.92-23.59-33.33S236.26,8.1,249.3,8.1,272.92,23,272.92,41.44Z" fill="#fdfdf6"/><path d="M272.92,41.44c0,18.4-10.57,33.32-23.62,33.33s-23.59-14.92-23.59-33.33" fill="#ffd58e"/><path d="M272.92,41.44c0,18.4-10.57,33.32-23.62,33.33s-23.59-14.92-23.59-33.33S236.26,8.1,249.3,8.1,272.92,23,272.92,41.44Z" fill="none"/><path d="M298.42,264.39c-13,13-31.05,16.08-40.26,6.88S252,244,265.06,231s31-16.08,40.25-6.88S311.45,251.37,298.42,264.39Z" fill="#fdfdf6"/><path d="M298.42,264.39c-13,13-31.05,16.08-40.26,6.88S252,244,265.06,231" fill="#ffd58e"/><path d="M298.42,264.39c-13,13-31.05,16.08-40.26,6.88S252,244,265.06,231s31-16.08,40.25-6.88S311.45,251.37,298.42,264.39Z" fill="none"/><path d="M203.23,308.54c13,13,31,16.1,40.28,6.88s6.12-27.25-6.91-40.27-31-16.1-40.24-6.87S190.21,295.52,203.23,308.54Z" fill="#fdfdf6"/><path d="M203.23,308.54c13,13,31,16.1,40.28,6.88s6.12-27.25-6.91-40.27" fill="#ffd58e"/><path d="M203.23,308.54c13,13,31,16.1,40.28,6.88s6.12-27.25-6.91-40.27-31-16.1-40.24-6.87S190.21,295.52,203.23,308.54Z" fill="none"/><path d="M298.42,149.61c-13,13-31.05,16.09-40.26,6.86s-6.14-27.23,6.9-40.25,31-16.09,40.25-6.86S311.45,136.58,298.42,149.61Z" fill="#fdfdf6"/><path d="M298.42,149.61c-13,13-31.05,16.09-40.26,6.86s-6.14-27.23,6.9-40.25" fill="#ffd58e"/><path d="M298.42,149.61c-13,13-31.05,16.09-40.26,6.86s-6.14-27.23,6.9-40.25,31-16.09,40.25-6.86S311.45,136.58,298.42,149.61Z" fill="none"/><path d="M203.23,193.76c13,13,31,16.08,40.28,6.86s6.12-27.23-6.91-40.25-31-16.09-40.24-6.88S190.21,180.74,203.23,193.76Z" fill="#fdfdf6"/><path d="M203.23,193.76c13,13,31,16.08,40.28,6.86s6.12-27.23-6.91-40.25" fill="#ffd58e"/><path d="M203.23,193.76c13,13,31,16.08,40.28,6.86s6.12-27.23-6.91-40.25-31-16.09-40.24-6.88S190.21,180.74,203.23,193.76Z" fill="none"/><path d="M486.51,178.49c-13,13-31.05,16.08-40.28,6.86s-6.13-27.25,6.91-40.26,31-16.1,40.22-6.87S499.53,165.46,486.51,178.49Z" fill="#fdfdf6"/><path d="M486.51,178.49c-13,13-31.05,16.08-40.28,6.86s-6.13-27.25,6.91-40.26" fill="#ffd58e"/><path d="M486.51,178.49c-13,13-31.05,16.08-40.28,6.86s-6.13-27.25,6.91-40.26,31-16.1,40.22-6.87S499.53,165.46,486.51,178.49Z" fill="none"/><path d="M335.87,338.76c-18.43,0-33.34-10.57-33.34-23.62s14.92-23.61,33.35-23.59,33.3,10.57,33.3,23.6S354.26,338.76,335.87,338.76Z" fill="#fdfdf6"/><path d="M335.87,338.76c-18.43,0-33.34-10.57-33.34-23.62s14.92-23.61,33.35-23.59" fill="#ffd58e"/><path d="M335.87,338.76c-18.43,0-33.34-10.57-33.34-23.62s14.92-23.61,33.35-23.59,33.3,10.57,33.3,23.6S354.26,338.76,335.87,338.76Z" fill="none"/><path d="M294.88,393.85c-13,13-31.05,16.07-40.27,6.85s-6.12-27.24,6.89-40.26,31-16.07,40.26-6.87S307.91,380.82,294.88,393.85Z" fill="#fdfdf6"/><path d="M294.88,393.85c-13,13-31.05,16.07-40.27,6.85s-6.12-27.24,6.89-40.26" fill="#ffd58e"/><path d="M294.88,393.85c-13,13-31.05,16.07-40.27,6.85s-6.12-27.24,6.89-40.26,31-16.07,40.26-6.87S307.91,380.82,294.88,393.85Z" fill="none"/><path d="M428,273c-18.4,0-33.34-10.57-33.34-23.62s14.94-23.6,33.36-23.58,33.31,10.55,33.31,23.58S446.46,273,428,273Z" fill="#fdfdf6"/><path d="M428,273c-18.4,0-33.34-10.57-33.34-23.62s14.94-23.6,33.36-23.58" fill="#ffd58e"/><path d="M428,273c-18.4,0-33.34-10.57-33.34-23.62s14.94-23.6,33.36-23.58,33.31,10.55,33.31,23.58S446.46,273,428,273Z" fill="none"/><path d="M329.55,236.91c0,18.42,10.56,33.34,23.58,33.33s23.61-14.91,23.59-33.34-10.55-33.32-23.59-33.32S329.55,218.51,329.55,236.91Z" fill="#fdfdf6"/><path d="M329.55,236.91c0,18.42,10.56,33.34,23.58,33.33s23.61-14.91,23.59-33.34" fill="#ffd58e"/><path d="M329.55,236.91c0,18.42,10.56,33.34,23.58,33.33s23.61-14.91,23.59-33.34-10.55-33.32-23.59-33.32S329.55,218.51,329.55,236.91Z" fill="none"/><path d="M25.56,155.95c13,13,31,16.08,40.26,6.87s6.13-27.26-6.89-40.29-31-16.07-40.25-6.84S12.54,142.93,25.56,155.95Z" fill="#fdfdf6"/><path d="M25.56,155.95c13,13,31,16.08,40.26,6.87s6.13-27.26-6.89-40.29" fill="#ffd58e"/><path d="M25.56,155.95c13,13,31,16.08,40.26,6.87s6.13-27.26-6.89-40.29-31-16.07-40.25-6.84S12.54,142.93,25.56,155.95Z" fill="none"/><path d="M84,250.47c18.4,0,33.34-10.57,33.34-23.61S102.4,203.27,84,203.29s-33.32,10.55-33.32,23.59S65.59,250.47,84,250.47Z" fill="#fdfdf6"/><path d="M84,250.47c18.4,0,33.34-10.57,33.34-23.61S102.4,203.27,84,203.29" fill="#ffd58e"/><path d="M84,250.47c18.4,0,33.34-10.57,33.34-23.61S102.4,203.27,84,203.29s-33.32,10.55-33.32,23.59S65.59,250.47,84,250.47Z" fill="none"/><path d="M182.53,214.39c0,18.39-10.56,33.33-23.61,33.31s-23.62-14.92-23.59-33.33,10.55-33.31,23.6-33.31S182.53,196,182.53,214.39Z" fill="#fdfdf6"/><path d="M182.53,214.39c0,18.39-10.56,33.33-23.61,33.31s-23.62-14.92-23.59-33.33" fill="#ffd58e"/><path d="M182.53,214.39c0,18.39-10.56,33.33-23.61,33.31s-23.62-14.92-23.59-33.33,10.55-33.31,23.6-33.31S182.53,196,182.53,214.39Z" fill="none"/></g><g id="outline"><path d="M249.31,82.86c-17.77,0-31.69-18.2-31.69-41.43S231.53,0,249.3,0,281,18.2,281,41.44h0C281,64.66,267.06,82.86,249.31,82.86Zm0-66.67c-8.25,0-15.49,11.79-15.49,25.23S241,66.67,249.3,66.67s15.51-11.8,15.52-25.23S257.57,16.19,249.3,16.19Zm23.62,25.24h0Z" fill="#4d5152"/><path d="M272.17,284.74A27.3,27.3,0,0,1,252.44,277c-6.28-6.28-8.88-15.68-7.15-25.8,1.58-9.25,6.57-18.46,14.05-25.92,16.4-16.42,39.11-19.43,51.69-6.88s9.55,35.31-6.88,51.73C294.55,279.72,282.79,284.74,272.17,284.74Zm19.27-57.82c-6.39,0-14.38,3.53-20.65,9.8-5.06,5-8.53,11.31-9.54,17.19-.49,2.86-.8,8.18,2.64,11.62,5.84,5.84,19.29,2.62,28.81-6.88h0c9.51-9.5,12.73-23,6.88-28.81A11.23,11.23,0,0,0,291.44,226.92Z" fill="#4d5152"/><path d="M229.49,328.89c-10.63,0-22.38-5-32-14.62-7.47-7.47-12.46-16.68-14-25.92-1.73-10.12.88-19.52,7.16-25.8s15.66-8.9,25.8-7.16c9.24,1.58,18.44,6.56,25.9,14,16.43,16.42,19.48,39.14,6.91,51.72A27.38,27.38,0,0,1,229.49,328.89Zm-19.19-57.83a11.37,11.37,0,0,0-8.22,2.94c-5.85,5.84-2.63,19.31,6.88,28.82s23,12.71,28.83,6.87,2.6-19.3-6.92-28.81c-5-5.05-11.3-8.52-17.17-9.52A20.34,20.34,0,0,0,210.31,271.06Z" fill="#4d5152"/><path d="M272.13,169.88h0c-7.85,0-14.66-2.67-19.67-7.71-6.26-6.26-8.87-15.67-7.14-25.78,1.58-9.24,6.57-18.45,14.05-25.92S276,98,285.25,96.46c10.12-1.71,19.52.88,25.8,7.17s8.88,15.67,7.15,25.79c-1.58,9.24-6.57,18.44-14,25.92C294.9,164.58,283.23,169.88,272.13,169.88Zm19.23-57.76a20.29,20.29,0,0,0-3.39.29c-5.87,1-12.14,4.47-17.18,9.51s-8.53,11.32-9.53,17.19c-.49,2.86-.8,8.17,2.64,11.61,2.43,2.44,5.81,2.95,8.22,3h0c6.74,0,14.43-3.67,20.57-9.81,5-5.05,8.52-11.32,9.53-17.2.49-2.86.8-8.17-2.64-11.61A11.38,11.38,0,0,0,291.36,112.13Z" fill="#4d5152"/><path d="M229.47,214.09c-10.62,0-22.37-5-32-14.61h0c-16.43-16.43-19.45-39.14-6.88-51.73s35.29-9.55,51.7,6.88c7.47,7.46,12.46,16.67,14,25.91,1.74,10.12-.87,19.51-7.13,25.78A27.38,27.38,0,0,1,229.47,214.09Zm-19.24-57.81a11.25,11.25,0,0,0-8.16,2.93c-5.83,5.84-2.62,19.31,6.88,28.81h0c9.5,9.5,23,12.71,28.83,6.85,3.42-3.42,3.11-8.73,2.62-11.59-1-5.88-4.49-12.15-9.54-17.2C224.61,159.82,216.62,156.29,210.23,156.29Z" fill="#4d5152"/><path d="M460.24,198.82a27.32,27.32,0,0,1-19.73-7.74c-5-5-7.69-11.83-7.68-19.68,0-11.11,5.33-22.79,14.6-32s20.9-14.56,32-14.56h0c7.85,0,14.65,2.67,19.67,7.71s7.69,11.8,7.7,19.66c0,11.1-5.29,22.78-14.55,32h0C482.61,193.81,470.86,198.82,460.24,198.82ZM479.41,141c-6.72,0-14.39,3.67-20.53,9.81S449,164.67,449,171.4c0,2.41.51,5.79,2.93,8.22,5.83,5.84,19.32,2.64,28.83-6.87,6.15-6.15,9.82-13.85,9.81-20.58,0-2.41-.52-5.79-3-8.22s-5.82-3-8.23-3Zm7.1,37.49h0Z" fill="#4d5152"/><path d="M335.87,346.85h0c-23.23,0-41.43-13.95-41.43-31.71,0-8.87,4.8-17.36,13.18-23.29,7.67-5.43,17.46-8.09,28.28-8.4H336c10.51,0,20.51,3,28.15,8.4,8.38,5.94,13.18,14.43,13.18,23.3C377.27,332.93,359.09,346.85,335.87,346.85Zm0-47.21c-7.14,0-14,2-18.88,5.42-2.37,1.68-6.35,5.22-6.35,10.08,0,8.4,11.56,15.51,25.24,15.52,13.43,0,25.21-7.25,25.22-15.52,0-4.85-4-8.4-6.35-10.08-4.86-3.44-11.71-5.42-18.81-5.42Z" fill="#4d5152"/><path d="M268.62,414.17a27.31,27.31,0,0,1-19.73-7.75c-12.55-12.57-9.52-35.29,6.89-51.71s39.13-19.44,51.71-6.88c6.29,6.28,8.9,15.68,7.17,25.81-1.58,9.25-6.57,18.46-14,25.93h0C291,409.16,279.24,414.17,268.62,414.17Zm19.26-57.8c-6.39,0-14.38,3.53-20.65,9.79-9.49,9.51-12.71,23-6.88,28.82s19.29,2.63,28.81-6.86c5-5.05,8.52-11.32,9.52-17.2.49-2.86.8-8.18-2.65-11.62A11.25,11.25,0,0,0,287.88,356.37Zm7,37.48h0Z" fill="#4d5152"/><path d="M428,281.11c-23.24,0-41.43-13.93-41.43-31.72s18.21-31.68,41.42-31.68h.08c10.53,0,20.54,3,28.19,8.39,8.37,5.93,13.18,14.42,13.18,23.29C469.47,267.18,451.28,281.11,428,281.11Zm0-47.2c-13.44,0-25.23,7.24-25.24,15.49s11.8,15.52,25.24,15.52,25.24-7.26,25.24-15.53c0-4.86-4-8.4-6.34-10.07-4.86-3.44-11.73-5.41-18.84-5.41Z" fill="#4d5152"/><path d="M353.11,278.34c-8.86,0-17.34-4.8-23.27-13.18-5.41-7.65-8.4-17.69-8.4-28.25,0-23.22,13.91-41.41,31.67-41.42,8.88,0,17.38,4.8,23.31,13.18,5.42,7.65,8.4,17.68,8.39,28.24s-3,20.59-8.4,28.25c-5.93,8.37-14.42,13.18-23.29,13.18Zm0-66.66c-8.25,0-15.49,11.8-15.49,25.23,0,7.14,2,14,5.42,18.9,1.67,2.36,5.21,6.33,10.05,6.33h0c4.86,0,8.4-4,10.08-6.34,3.45-4.87,5.42-11.76,5.42-18.89s-2-14-5.41-18.89C361.53,215.66,358,211.68,353.13,211.68Z" fill="#4d5152"/><path d="M51.83,176.28c-10.62,0-22.37-5-32-14.6h0C3.41,145.25.39,122.53,13,110s35.27-9.55,51.69,6.84,19.45,39.16,6.9,51.74A27.34,27.34,0,0,1,51.83,176.28ZM31.29,150.23c9.52,9.48,23,12.7,28.81,6.87s2.61-19.32-6.9-28.83-23-12.67-28.8-6.84-2.62,19.3,6.88,28.81Z" fill="#4d5152"/><path d="M84,258.57h0c-23.24,0-41.43-13.92-41.43-31.69,0-8.88,4.8-17.37,13.18-23.3,7.66-5.42,17.59-8.39,28.25-8.39a46.5,46.5,0,0,1,28.25,8.38c8.38,5.93,13.19,14.41,13.19,23.29C125.43,244.63,107.24,258.56,84,258.57ZM84,211.38c-7.13,0-14,2-18.85,5.41-2.37,1.68-6.34,5.22-6.34,10.08,0,8.25,11.79,15.5,25.23,15.5s25.24-7.25,25.24-15.51c0-4.85-4-8.4-6.35-10.07C98,213.36,91.15,211.38,84,211.38Z" fill="#4d5152"/><path d="M158.94,255.8h0c-7.11,0-13.81-2.94-19.37-8.5-7.85-7.86-12.33-19.86-12.31-32.94s4.46-25,12.3-32.89c5.56-5.57,12.27-8.51,19.4-8.51,17.77,0,31.7,18.21,31.7,41.43h0c0,10.56-3,20.59-8.4,28.24C176.3,251,167.81,255.8,158.94,255.8Zm0-66.64c-3.45,0-6.22,2-7.93,3.76-4.75,4.76-7.58,12.78-7.57,21.45s2.82,16.73,7.58,21.5c1.71,1.71,4.47,3.75,7.91,3.75h0c4.86,0,8.4-4,10.08-6.33,3.44-4.87,5.42-11.75,5.43-18.89C174.44,200.71,167.33,189.16,158.93,189.15Zm23.6,25.23h0Z" fill="#4d5152"/></g></g></g></svg>