<svg id="Layer_1" data-name="Layer 1" xmlns="http://www.w3.org/2000/svg" viewBox="0 0 512 512"><title>sunflower</title><g id="flower"><g id="fill"><path d="M435.29,160.29A79.44,79.44,0,0,0,355.91,81c-6.94,0-13.61,1.75-20.27,3.52-1.76-42.22-36.07-76.21-78.71-76.21-42.88,0-77.47,34.34-78.85,76.86C170.9,83,163.66,81,156,81a79.42,79.42,0,0,0-79.33,79.34c0,34.23,22,62.79,52.4,73.9-8.59,12.86-13.82,27.88-13.82,43.7a79.43,79.43,0,0,0,79.34,79.33c25.45,0,47.68-12.75,62.29-31.89,14.59,19.14,36.85,31.89,62.29,31.89a79.45,79.45,0,0,0,79.37-79.33,77.86,77.86,0,0,0-14-44C414.18,222.27,435.29,193.87,435.29,160.29Z" fill="#ffd58e"/><path d="M254.72,124.9A68.3,68.3,0,1,0,323,193.2,68.37,68.37,0,0,0,254.72,124.9Z" fill="#fdfdf6"/><path d="M264.17,473.1s52.63,6.35,99.86-19.32,71.25-73.65,71.25-73.65-52.61-6.35-99.85,19.32S264.17,473.1,264.17,473.1Z" fill="#a5bf8f"/><path d="M247.83,473.1s-52.64,6.35-99.88-19.32-71.23-73.65-71.23-73.65,52.59-6.35,99.83,19.32S247.83,473.1,247.83,473.1Z" fill="#a5bf8f"/></g><g id="outline"><path d="M319.21,365.49c-23.48,0-45.69-9.87-62.29-27.41-16.61,17.53-38.83,27.41-62.29,27.41A87.71,87.71,0,0,1,107,277.89a85.22,85.22,0,0,1,10.18-39.83c-29.52-14.69-48.76-44.83-48.76-77.77A87.71,87.71,0,0,1,156,72.68a64,64,0,0,1,14.68,1.88,87,87,0,0,1,172.21-.4,63.15,63.15,0,0,1,13-1.48,87.73,87.73,0,0,1,87.66,87.61,86.79,86.79,0,0,1-47,77.23,85.24,85.24,0,0,1,10.35,40.37A87.73,87.73,0,0,1,319.21,365.49Zm-62.29-53.81,6.58,8.63c13.88,18.2,34.18,28.63,55.71,28.63a71.15,71.15,0,0,0,71.09-71.05,69.93,69.93,0,0,0-12.53-39.38l-5.84-8.58,9.66-3.79C409.19,215.33,427,189.48,427,160.29a71.16,71.16,0,0,0-71.1-71.06c-6,0-12.15,1.65-18.14,3.25l-10,2.66-.43-10.31c-1.6-38.28-32.54-68.28-70.44-68.28-38.32,0-69.32,30.25-70.58,68.85L186,96.09l-10.26-3c-6.44-1.89-13.1-3.85-19.69-3.85A71.14,71.14,0,0,0,85,160.29C85,190,103.42,216,132,226.42l9.89,3.61L136,238.79c-8.14,12.19-12.43,25.71-12.43,39.11a71.14,71.14,0,0,0,71.06,71.05c21.52,0,41.82-10.44,55.71-28.63Z" fill="#4d5152"/><path d="M254.72,269.77a76.57,76.57,0,1,1,76.59-76.57A76.66,76.66,0,0,1,254.72,269.77Zm0-136.59a60,60,0,1,0,60,60A60.08,60.08,0,0,0,254.72,133.18Z" fill="#4d5152"/><path d="M279.62,482.1a147.22,147.22,0,0,1-16.43-.79,8.27,8.27,0,0,1-6.41-11.92c1-2.05,25.73-50.61,74.72-77.22S434,371.63,436.28,371.92a8.27,8.27,0,0,1,6.41,11.92c-1,2.05-25.73,50.6-74.7,77.21C334.86,479.05,299.65,482.1,279.62,482.1Zm-1.35-16.61c17.74,0,51.28-2.38,81.81-19s51.23-43.59,61.09-58.76h-.83c-18.1,0-50.89,2.64-81,19C308.64,423.42,288.09,450.33,278.27,465.48Z" fill="#4d5152"/><path d="M232.38,482.1c-20,0-55.25-3-88.39-21-49-26.62-73.66-75.16-74.68-77.22a8.27,8.27,0,0,1,6.4-11.92c2.28-.27,55.78-6.37,104.78,20.26s73.7,75.16,74.74,77.22a8.27,8.27,0,0,1-6.41,11.92A147.4,147.4,0,0,1,232.38,482.1ZM90.83,387.74c9.85,15.17,30.44,42.11,61.07,58.76,30.06,16.33,62.69,19,80.8,19h1c-9.86-15.17-30.47-42.13-61.13-58.78S108.6,387.69,90.83,387.74Z" fill="#4d5152"/><rect x="246.44" y="332.71" width="16.56" height="179.29" fill="#4d5152"/></g></g></svg>