<svg id="Layer_1" data-name="Layer 1" xmlns="http://www.w3.org/2000/svg" viewBox="0 0 512 512"><title>blossom</title><g id="blossom"><g id="fill"><path d="M221.88,272.37a34,34,0,1,1,34,34A34,34,0,0,1,221.88,272.37Z" fill="#a5bf8f"/><path d="M256.28,16.82A82.14,82.14,0,0,0,174.15,99c0,39.35,27.67,99.09,64.63,114.25V158.39a17.1,17.1,0,1,1,34.2,0v55.23c37.36-14.57,65.47-75,65.47-114.64A82.16,82.16,0,0,0,256.28,16.82Z" fill="#ffcecf"/><path d="M498.91,193.57A82.17,82.17,0,0,0,395.4,140.83C358,153,309.71,197.76,306.68,237.61l52.17-17a17.12,17.12,0,0,1,10.61,32.56l-52.58,17.09c25.48,31,91.58,39.05,129.31,26.79A82.13,82.13,0,0,0,498.91,193.57Z" fill="#ffcecf"/><path d="M406,479.5a82.14,82.14,0,0,0,18.2-114.71C401,332.95,343.54,300.9,304.72,310.32L337,354.71a17.11,17.11,0,0,1-27.7,20.1l-32.45-44.7c-21.66,33.76-8.86,99.16,14.41,131.25A82.16,82.16,0,0,0,406,479.5Z" fill="#ffcecf"/><path d="M105,479a82.16,82.16,0,0,0,114.74-18.17c23.16-31.83,35.86-96.42,14.88-130.4l-32.25,44.35a17.09,17.09,0,0,1-27.65-20.1L207.18,310c-38.8-10.14-97,22.21-120.32,54.31A82.14,82.14,0,0,0,105,479Z" fill="#ffcecf"/><path d="M13.09,192.74a82.11,82.11,0,0,0,52.72,103.5c37.41,12.15,102.79,4.28,128.64-26.17l-52.14-17a17.09,17.09,0,1,1,10.55-32.52l52.56,17.05c-2.33-40-51.11-85.44-88.82-97.64A82.09,82.09,0,0,0,13.09,192.74Z" fill="#ffcecf"/></g><g id="outline"><path d="M255.85,315.37a43,43,0,1,1,43-43A43,43,0,0,1,255.85,315.37Zm0-68a25,25,0,1,0,25,25A25,25,0,0,0,255.85,247.42Z" fill="#4d5152"/><path d="M264,226.81V158.39a8.09,8.09,0,1,0-16.17,0v68.28l-12.44-5.1C195.17,205.08,165.14,143.25,165.14,99a91.16,91.16,0,1,1,182.32,0c0,44.06-31.1,107.41-71.21,123Zm-8.09-94.56A26.16,26.16,0,0,1,282,158.39v39.94c27.15-19.93,47.44-66.56,47.44-99.35a73.13,73.13,0,1,0-146.27,0c0,32.17,19.91,78.32,46.6,98.64V158.39A26.15,26.15,0,0,1,255.87,132.25Z" fill="#4d5152"/><path d="M407.38,311.53c-37.09,0-78-11.88-97.47-35.53l-8.39-10.21,65.15-21.17a8,8,0,0,0,4.7-4,8.12,8.12,0,0,0-9.76-11.39l-64.95,21.14,1-13.43c3.3-43.31,52.83-91,94.93-104.67a91.32,91.32,0,0,1,114.87,58.52h0A91.14,91.14,0,0,1,449,305.64C436.88,309.57,422.45,311.53,407.38,311.53Zm-73.15-37.42c27.39,19.63,78,24.49,109.17,14.38A73.12,73.12,0,0,0,398.19,149.4c-30.58,9.94-68.33,43.13-79.43,74.79l37.3-12.14a26.15,26.15,0,0,1,31.39,36.72,25.91,25.91,0,0,1-15.21,13Z" fill="#4d5152"/><path d="M357.79,504.19a91.14,91.14,0,0,1-73.86-37.52C258.05,431,246,361.44,269.22,325.25l7.13-11.11,40.21,55.38a8,8,0,0,0,5.3,3.24,7.89,7.89,0,0,0,6-1.43A8.05,8.05,0,0,0,329.67,360l-40.15-55.28,13.07-3.17c42.2-10.24,102.84,22.14,128.86,57.93a91.15,91.15,0,0,1-73.67,144.7ZM278.5,347.8c-10.23,32.07.77,81.74,20,108.28a73.2,73.2,0,0,0,102.14,16.14h0a73.12,73.12,0,0,0,16.21-102.11c-18.91-26-62.14-51.65-95.68-52.43l23.06,31.75A26.13,26.13,0,0,1,302,380.1Z" fill="#4d5152"/><path d="M153.19,503.66a90.66,90.66,0,0,1-53.46-17.37h0A91.26,91.26,0,0,1,79.57,359c25.87-35.63,88.23-68.64,129.89-57.73l12.77,3.34L182,360a8.1,8.1,0,0,0,1.8,11.29,7.91,7.91,0,0,0,6,1.45,8,8,0,0,0,5.27-3.23l40.16-55.23,7.06,11.44c22.84,37,10.79,104.66-15.26,140.45A91.12,91.12,0,0,1,153.19,503.66Zm-42.86-32a73.23,73.23,0,0,0,102.15-16.18c18.93-26,30-75,20.29-107.19l-23.08,31.73a26.11,26.11,0,0,1-42.24-30.7l23.45-32.33c-33.68.18-77.49,26-96.74,52.53A73.21,73.21,0,0,0,110.33,471.7Z" fill="#4d5152"/><path d="M105.29,310.86c-15.22,0-29.86-2-42.26-6a91.16,91.16,0,1,1,56.36-173.38c41.88,13.55,92.53,62.67,95,105.68l.77,13.17-65.11-21.13a8.1,8.1,0,0,0-10.19,5.22,7.89,7.89,0,0,0,.46,6.11,8,8,0,0,0,4.73,4L210,265.65l-8.7,10.25C181.49,299.27,141.76,310.85,105.29,310.86ZM91.1,144.94a73.21,73.21,0,0,0-69.43,50.58h0a73.09,73.09,0,0,0,46.94,92.13c30.59,9.94,80.64,5.24,108.21-13.85l-37.3-12.13A26.11,26.11,0,1,1,155.65,212l38,12.33c-10.56-32-48.66-65.68-79.84-75.76A73.17,73.17,0,0,0,91.1,144.94Z" fill="#4d5152"/></g></g></svg>