<svg id="Layer_1" data-name="Layer 1" xmlns="http://www.w3.org/2000/svg" viewBox="0 0 512 512"><title>white-flower-leaves</title><g id="flower"><g id="flower-2" data-name="flower"><g id="fill"><path d="M407.86,134.76A58.95,58.95,0,0,0,311.5,89.23a59,59,0,1,0-108.06,2.65A58.85,58.85,0,1,0,169,193.41a58.89,58.89,0,1,0,87.88,61.39,58.91,58.91,0,1,0,88-61.3c1.35.11,2.67.19,4,.19A58.94,58.94,0,0,0,407.86,134.76Z" fill="#fdfdf6"/><path d="M256.87,112.44a51.25,51.25,0,1,0,51.27,51.22,51.28,51.28,0,0,0-51.27-51.22Z" fill="#ffcecf"/><path d="M338.09,434.11h0a33.94,33.94,0,0,1-33.93-33.94c0-50.55,93.35-59.39,93.35-59.39S397.5,434.11,338.09,434.11Z" fill="#a5bf8f"/><path d="M173.9,434.11h0a33.94,33.94,0,0,0,34-33.93c0-50.57-93.35-59.39-93.35-59.39S114.5,434.11,173.9,434.11Z" fill="#a5bf8f"/></g><g id="line"><path d="M314.78,311.26a67.14,67.14,0,0,1-57.91-33.11,67.17,67.17,0,1,1-108.77-77.87,67.2,67.2,0,1,1,41.83-127.1q-.27-3-.27-6a67.21,67.21,0,0,1,134.42,0c0,1.74-.07,3.49-.2,5.22a67.19,67.19,0,1,1,41.55,127.49A66.54,66.54,0,0,1,382,244.1,67.26,67.26,0,0,1,314.78,311.26Zm-57.91-64.73h0a8.26,8.26,0,0,1,8.13,6.77,50.64,50.64,0,1,0,75.65-52.71,8.27,8.27,0,0,1,4.89-15.34c29.61,2.42,54.05-21.44,54-50.5a50.67,50.67,0,0,0-82.85-39.13,8.27,8.27,0,0,1-12.91-9.48A50.66,50.66,0,1,0,206.19,67.2a50.05,50.05,0,0,0,4.75,21.2,8.27,8.27,0,0,1-13.15,9.52,50.59,50.59,0,1,0-29.63,87.27,8.27,8.27,0,0,1,5,15.34,50.62,50.62,0,1,0,75.55,52.78A8.27,8.27,0,0,1,256.87,246.54Z" fill="#4d5152"/><path d="M256.87,229a65.31,65.31,0,1,1,65.32-65.34A65.4,65.4,0,0,1,256.87,229Zm0-114.09a48.78,48.78,0,1,0,48.79,48.76A48.83,48.83,0,0,0,256.87,114.91Z" fill="#4d5152"/><path d="M256,512a8.27,8.27,0,0,1-8.27-8.27V271a8.27,8.27,0,0,1,16.53,0v232.7A8.27,8.27,0,0,1,256,512Z" fill="#4d5152"/><path d="M338.09,442.38a42.25,42.25,0,0,1-42.2-42.21c0-57.42,96.71-67.23,100.83-67.63a8.19,8.19,0,0,1,6.35,2.11,8.29,8.29,0,0,1,2.7,6.12C405.77,344.92,405,442.38,338.09,442.38Zm50.64-92c-22.38,3.82-76.31,16.5-76.31,49.77a25.7,25.7,0,0,0,25.67,25.68C378.26,425.85,386.88,372.67,388.73,350.4Z" fill="#4d5152"/><path d="M314.08,432.42a8.27,8.27,0,0,1-5.71-14.24l33.81-32.33a8.27,8.27,0,1,1,11.43,11.95L319.8,430.13A8.23,8.23,0,0,1,314.08,432.42Z" fill="#4d5152"/><path d="M260.56,487.42a8.27,8.27,0,0,1-5.92-14l52.08-53.52a8.27,8.27,0,1,1,11.85,11.54l-52.08,53.52A8.24,8.24,0,0,1,260.56,487.42Z" fill="#4d5152"/><path d="M173.9,442.38c-66.89,0-67.66-97.44-67.66-101.59a8.26,8.26,0,0,1,9-8.23c4.12.39,100.84,10.19,100.84,67.63A42.25,42.25,0,0,1,173.9,442.38Zm-50.61-92c1.87,22.26,10.55,75.44,50.61,75.44a25.7,25.7,0,0,0,25.69-25.66C199.58,366.84,145.67,354.21,123.28,350.41Z" fill="#4d5152"/><path d="M197.91,432.44a8.23,8.23,0,0,1-5.71-2.29L158.37,397.8a8.27,8.27,0,0,1,11.43-11.95l33.83,32.35a8.27,8.27,0,0,1-5.71,14.24Z" fill="#4d5152"/><path d="M251.43,487.43a8.23,8.23,0,0,1-5.92-2.5L193.43,431.4a8.27,8.27,0,0,1,11.85-11.53l52.08,53.52a8.27,8.27,0,0,1-5.92,14Z" fill="#4d5152"/></g></g></g></svg>